<svg xmlns="http://www.w3.org/2000/svg" xmlns:xlink="http://www.w3.org/1999/xlink" width="646.215" height="331.535" viewBox="0 0 646.215 331.535">
  <defs>
    <clipPath id="clip-path">
      <rect width="646.215" height="331.535" fill="none"/>
    </clipPath>
  </defs>
  <g id="Component_2_1" data-name="Component 2 – 1" transform="translate(0)" clip-path="url(#clip-path)">
    <path id="Path_7" data-name="Path 7" d="M27.9,105.36,16.461,125.2h8.516l-1.146,5.62H3.082l1.1-5.62H9.189l46.5-80.691H62.7L76.677,125.2h4.961l-1.092,5.62H54.685l1.093-5.62h8.513L60.826,105.36Zm3.238-5.62H59.843L53.165,61.505Zm88.078-8.086L112.5,125.2h8.628l-1.1,5.62H90.671l1.147-5.62h8.648L115.13,51.566h-8.488l1.09-5.62h33.331q10.248,0,16.058,4.387a14.351,14.351,0,0,1,5.811,12.129q0,8.6-6.521,15.886T138.845,89.359L156.222,125.2h5.219l-.4,5.62h-14.7L127.3,91.538Zm1.147-5.735h3.659q11.548,0,18.865-6.423A20.913,20.913,0,0,0,150.2,63.036q0-5.735-4.217-8.6t-12.709-2.867h-6.041ZM214.11,52.311H189.749L187.8,62.175h-6.429l3.212-16.23h73.639l-3.2,16.173h-6.429l1.938-9.807H226.155L211.624,125.2h9.488l-1.193,5.62H189.856l1.09-5.62h8.633Z" transform="translate(207.403 102.297)" fill="#555"/>
    <path id="Path_8" data-name="Path 8" d="M24.916,9.207A7.467,7.467,0,0,0,23.71,6.516,8.956,8.956,0,0,0,21.5,4.339a10.812,10.812,0,0,0-3.045-1.456,12.491,12.491,0,0,0-3.692-.529,13.552,13.552,0,0,0-5.074.912A10.3,10.3,0,0,0,5.81,5.957,12.168,12.168,0,0,0,3.339,10.4a20,20,0,0,0-.868,6.192,20.289,20.289,0,0,0,.868,6.222A12.591,12.591,0,0,0,5.81,27.328a10.415,10.415,0,0,0,3.854,2.765,12.878,12.878,0,0,0,5.016.941,11.852,11.852,0,0,0,6.883-1.868,8.05,8.05,0,0,0,3.353-5.457h2.442a11.167,11.167,0,0,1-1.441,4.1,10.582,10.582,0,0,1-2.736,3.045,12.062,12.062,0,0,1-3.795,1.883,16.039,16.039,0,0,1-4.648.647A15.142,15.142,0,0,1,8.6,32.2a13.048,13.048,0,0,1-4.633-3.368,15.088,15.088,0,0,1-2.942-5.28A22.021,22.021,0,0,1,0,16.591,21.51,21.51,0,0,1,1.03,9.707,14.863,14.863,0,0,1,3.986,4.486,12.958,12.958,0,0,1,8.634,1.162,15.4,15.4,0,0,1,14.738,0a14.369,14.369,0,0,1,4.427.677,13.279,13.279,0,0,1,3.78,1.9,11.713,11.713,0,0,1,2.824,2.912,10.563,10.563,0,0,1,1.588,3.721ZM69.742,32.8H50.769V.588h2.353V30.446h16.62ZM105.891,0a15.532,15.532,0,0,1,6.089,1.177,13.732,13.732,0,0,1,4.81,3.353,15.553,15.553,0,0,1,3.148,5.236,19.538,19.538,0,0,1,1.133,6.825,19.929,19.929,0,0,1-1.118,6.825,15.8,15.8,0,0,1-3.133,5.31,14,14,0,0,1-4.795,3.442,16.055,16.055,0,0,1-12.281,0,14.052,14.052,0,0,1-4.81-3.427A15.637,15.637,0,0,1,91.8,23.445a20.021,20.021,0,0,1-1.118-6.854,19.628,19.628,0,0,1,1.133-6.854,15.265,15.265,0,0,1,3.162-5.221,14.007,14.007,0,0,1,4.81-3.339A15.5,15.5,0,0,1,105.891,0Zm-.029,31.034a13.36,13.36,0,0,0,5.1-.956,11.184,11.184,0,0,0,4.045-2.809,12.9,12.9,0,0,0,2.647-4.545,18.525,18.525,0,0,0,.941-6.133,17.975,17.975,0,0,0-.956-6.119A12.788,12.788,0,0,0,115,6.016a11.038,11.038,0,0,0-4-2.736,13.425,13.425,0,0,0-5.045-.927,13.625,13.625,0,0,0-5.133.941,11.28,11.28,0,0,0-4.045,2.75A12.668,12.668,0,0,0,94.11,10.5a17.879,17.879,0,0,0-.956,6.089,18.525,18.525,0,0,0,.941,6.133,13.019,13.019,0,0,0,2.633,4.545,11.047,11.047,0,0,0,4.03,2.809A13.36,13.36,0,0,0,105.862,31.034Zm50.445,2.353a17.576,17.576,0,0,1-4.927-.6,10.44,10.44,0,0,1-3.4-1.633,8.076,8.076,0,0,1-2.147-2.412,12.064,12.064,0,0,1-1.206-2.942,16.63,16.63,0,0,1-.515-3.236q-.1-1.677-.1-3.265V.588h2.353V19.209a22.289,22.289,0,0,0,.662,5.986,8.257,8.257,0,0,0,1.941,3.6,6.593,6.593,0,0,0,3.118,1.765,17.092,17.092,0,0,0,4.221.471,17.59,17.59,0,0,0,4.28-.471,6.359,6.359,0,0,0,3.118-1.78,8.435,8.435,0,0,0,1.9-3.6,22.6,22.6,0,0,0,.647-5.972V.588H168.6V19.3a28.6,28.6,0,0,1-.559,5.942,10.943,10.943,0,0,1-1.941,4.427,8.679,8.679,0,0,1-3.765,2.765A16.33,16.33,0,0,1,156.307,33.388Zm62.829-16.944q0,16.356-16.267,16.356h-9.737V.618h9.737q8.148,0,12.208,3.927T219.136,16.444Zm-2.5,0A23.217,23.217,0,0,0,216,10.766a9.77,9.77,0,0,0-2.221-4.251,9.963,9.963,0,0,0-4.251-2.662,21.034,21.034,0,0,0-6.722-.912h-7.325v27.5h7.325A20.317,20.317,0,0,0,209.5,29.5a9.917,9.917,0,0,0,4.251-2.75,10.347,10.347,0,0,0,2.236-4.4A24.471,24.471,0,0,0,216.636,16.444Z" transform="matrix(1, -0.017, 0.017, 1, 206.853, 252.496)" fill="#fff1eb"/>
    <path id="Path_1" data-name="Path 1" d="M5.6,220.273s-20.4-67.776,16.63-131.788S137.706,0,137.706,0" transform="translate(81.525 73.959) rotate(21)" fill="none" stroke="#333" stroke-linecap="round" stroke-width="4" opacity="0.3"/>
    <path id="Path_5" data-name="Path 5" d="M.075,110.14S-3.09,73.988,31.588,34.731,95.34.176,95.34.176" transform="translate(643.939 147.394) rotate(95)" fill="none" stroke="#333" stroke-linecap="round" stroke-width="4" opacity="0.3"/>
    <path id="Path_6" data-name="Path 6" d="M24.043,234.124S-29.7,148.742,23.511,64.24,134.845,2.906,134.845,2.906" transform="translate(521.276 34.274) rotate(95)" fill="none" stroke="#333" stroke-linecap="round" stroke-width="4" opacity="0.3"/>
    <path id="Path_4" data-name="Path 4" d="M11.217,166.354s-30.439-48.347,8.968-108.894S111.691.027,111.691.027" transform="matrix(0.574, 0.819, -0.819, 0.574, 299.189, 2.827)" fill="none" stroke="#333" stroke-linecap="round" stroke-width="4" opacity="0.3"/>
  </g>
</svg>
